<?xml version="1.0" standalone="no"?>
<!DOCTYPE svg PUBLIC "-//W3C//DTD SVG 20010904//EN"
 "http://www.w3.org/TR/2001/REC-SVG-20010904/DTD/svg10.dtd">
<svg version="1.0" xmlns="http://www.w3.org/2000/svg"
 width="512.000000pt" height="512.000000pt" viewBox="0 0 512.000000 512.000000"
 preserveAspectRatio="xMidYMid meet">
<metadata>
Created by potrace 1.14, written by Peter Selinger 2001-2017
</metadata>
<g transform="translate(0.000000,512.000000) scale(0.100000,-0.100000)"
fill="#000000" stroke="none">
<path d="M2457 4744 c-1 -1 -42 -4 -92 -8 -690 -49 -1324 -439 -1700 -1046
-140 -227 -257 -540 -292 -783 -6 -46 -11 -72 -13 -72 -2 0 -7 -68 -10 -140
-2 -33 -8 -63 -14 -67 -7 -5 -7 -8 -1 -8 11 0 13 -96 2 -106 -3 -4 -2 -15 4
-25 7 -14 6 -19 -2 -19 -8 0 -8 -4 1 -15 10 -12 10 -18 -1 -32 -12 -14 -12
-15 0 -9 10 7 12 -2 10 -42 -2 -27 -1 -48 3 -45 16 9 7 -10 -9 -23 -15 -12
-15 -13 -2 -8 20 6 32 -39 15 -57 -8 -9 -8 -10 0 -6 7 4 12 -4 13 -21 3 -48 7
-67 15 -80 4 -7 6 -16 3 -18 -3 -3 -1 -20 4 -37 6 -18 12 -39 14 -47 1 -8 8
-34 14 -58 7 -23 9 -47 6 -52 -3 -6 -1 -10 5 -10 6 0 8 -4 5 -10 -3 -5 -2 -10
3 -10 15 0 21 -37 8 -50 -8 -9 -7 -11 4 -8 9 2 16 -6 18 -22 2 -14 8 -30 12
-35 20 -25 51 -126 42 -138 -11 -14 -12 -48 -1 -42 4 3 9 -2 13 -10 3 -8 12
-12 19 -9 9 3 20 -8 32 -33 10 -21 25 -46 34 -56 14 -17 14 -20 -9 -38 -18
-14 -20 -17 -6 -12 13 4 17 3 13 -4 -7 -12 20 -26 33 -18 7 4 14 -7 23 -35 1
-3 7 -12 14 -20 27 -33 78 -105 78 -112 0 -4 8 -13 17 -20 13 -9 15 -17 8 -28
-6 -10 -10 -11 -10 -2 0 6 -5 12 -11 12 -5 0 -8 -4 -4 -9 3 -6 -3 -14 -12 -20
-11 -6 -13 -11 -5 -11 7 0 11 -4 8 -8 -3 -5 1 -9 9 -9 8 0 15 4 15 9 0 4 -5 8
-11 8 -5 0 -7 5 -4 10 4 6 10 8 15 5 5 -3 11 -1 15 5 10 16 25 1 18 -17 -4
-10 -2 -14 4 -10 14 9 45 -21 37 -34 -3 -5 4 -13 16 -17 12 -4 22 -12 22 -17
0 -6 4 -9 9 -8 5 2 8 0 8 -5 -3 -17 1 -32 9 -29 4 1 17 -8 30 -21 12 -12 17
-22 11 -22 -5 0 -7 -5 -4 -10 4 -6 10 -8 15 -5 12 7 71 -45 64 -56 -3 -5 2 -9
10 -9 8 0 18 -9 21 -20 4 -11 11 -18 16 -15 5 4 12 -1 15 -9 3 -9 11 -13 17
-9 6 4 7 1 2 -7 -6 -10 -4 -12 7 -8 11 5 15 0 14 -15 -1 -23 -27 -30 -34 -9
-2 8 3 10 15 6 14 -5 15 -4 3 4 -8 6 -18 8 -24 5 -5 -4 -6 -1 -1 7 5 9 4 11
-3 6 -8 -5 -10 -1 -6 11 4 14 3 15 -4 4 -8 -11 -11 -11 -18 0 -5 8 -9 17 -9
22 0 4 -4 7 -9 6 -5 0 -12 5 -17 13 -5 7 -14 13 -21 13 -7 1 -12 6 -10 13 1 7
-5 15 -13 18 -8 3 -13 10 -10 14 3 4 -3 7 -13 6 -10 0 -16 6 -16 16 1 10 -3
15 -9 11 -6 -4 -7 -1 -2 8 7 12 6 12 -7 1 -16 -13 -33 -56 -18 -47 5 3 16 -3
26 -12 10 -10 22 -19 28 -19 6 -1 16 -2 21 -3 6 -1 3 -5 -5 -11 -8 -5 -11 -12
-7 -17 5 -4 11 -3 15 2 12 16 30 15 36 -1 4 -12 2 -15 -9 -11 -19 8 -31 -11
-16 -26 9 -9 11 -8 5 6 -5 13 -2 16 10 11 9 -3 13 -10 10 -15 -3 -5 0 -9 6 -9
6 0 8 -5 5 -10 -4 -6 -3 -10 2 -9 25 4 35 -3 30 -21 -4 -16 -2 -18 13 -10 13
7 21 7 25 0 3 -5 1 -10 -4 -10 -6 0 -11 -4 -11 -10 0 -5 3 -9 8 -9 24 4 42 -2
36 -13 -4 -7 -3 -8 4 -4 9 5 9 13 1 28 -9 16 -8 19 2 13 7 -5 10 -4 6 1 -3 6
-1 16 5 24 8 12 9 11 4 -4 -5 -13 -2 -17 8 -13 8 3 22 -3 32 -14 14 -16 15
-22 4 -32 -10 -10 -12 -8 -6 8 6 20 6 20 -9 1 -14 -19 -21 -12 -16 17 0 4 -3
7 -8 7 -11 0 -9 -39 3 -58 6 -10 11 -10 21 -2 8 7 15 7 19 1 4 -5 -3 -12 -14
-16 -11 -3 -20 -10 -20 -15 0 -12 33 -5 38 8 2 7 8 10 13 6 5 -3 6 -11 2 -17
-17 -27 -12 -36 14 -26 32 12 32 12 28 -8 -1 -10 0 -12 2 -4 4 12 6 12 14 0 5
-9 2 -21 -9 -34 -17 -20 -17 -20 4 -3 16 14 23 15 33 5 10 -9 11 -8 5 8 -6 16
-5 18 6 8 20 -19 21 -44 2 -41 -10 2 -21 8 -25 13 -5 6 -7 4 -5 -4 5 -18 38
-23 55 -9 7 6 13 7 13 3 0 -4 6 -2 14 4 10 8 16 8 25 -3 9 -11 6 -13 -15 -13
-14 0 -31 -6 -37 -12 -9 -10 -6 -10 16 -2 26 10 40 -2 15 -12 -8 -4 -9 -6 -2
-6 6 -1 17 6 24 14 7 8 17 15 23 15 6 0 0 -11 -14 -26 -17 -18 -19 -23 -6 -18
9 3 17 10 17 16 0 5 4 7 10 3 5 -3 7 -13 4 -23 -5 -15 -4 -15 9 1 9 11 18 14
21 8 4 -5 2 -12 -4 -16 -5 -3 -10 -12 -10 -18 0 -7 7 -3 15 7 8 10 12 23 9 27
-3 5 -1 9 5 9 18 0 21 -17 6 -36 -8 -10 -14 -23 -14 -29 0 -5 4 -2 10 8 15 25
32 22 19 -4 -7 -11 -9 -23 -6 -27 3 -3 6 -1 6 5 0 12 39 59 41 50 1 -4 3 -11
4 -17 1 -5 3 -15 4 -21 0 -6 8 -8 17 -5 12 4 14 1 9 -14 -4 -12 -2 -20 5 -20
6 0 8 4 5 10 -3 5 0 10 8 10 8 0 17 -7 21 -15 3 -9 0 -15 -9 -15 -8 0 -15 -5
-15 -11 0 -5 5 -7 11 -3 21 13 54 10 61 -6 5 -12 7 -12 7 3 1 9 5 17 10 17 5
0 8 -12 5 -28 -3 -19 -2 -23 5 -12 5 8 7 18 4 24 -4 5 1 7 11 3 14 -6 15 -4 5
14 -9 17 -8 20 2 13 24 -15 59 -13 69 4 6 11 10 12 10 4 0 -7 4 -11 9 -7 5 3
12 1 16 -5 4 -6 11 -7 17 -4 7 4 8 2 4 -5 -5 -8 0 -10 19 -7 17 3 28 0 32 -10
5 -13 7 -13 14 -2 5 7 9 8 9 2 0 -6 6 -11 13 -12 25 -3 62 -10 62 -12 0 -2 37
-11 65 -15 14 -1 27 -4 30 -5 3 -1 9 -2 13 -1 5 1 6 -3 3 -8 -4 -5 -2 -12 4
-16 5 -3 10 -2 10 4 0 6 16 9 38 7 20 -3 37 -5 37 -6 0 -1 9 -3 19 -5 10 -2
22 -9 26 -15 5 -9 9 -9 14 -1 9 14 29 14 24 0 -2 -6 -6 -9 -9 -7 -3 2 -14 -4
-24 -12 -17 -13 -18 -13 -11 0 4 8 -1 5 -11 -6 -18 -20 -21 -20 -32 -5 -6 9
-10 11 -7 5 3 -6 -1 -11 -9 -11 -8 0 -12 5 -9 11 3 6 -1 3 -9 -7 -13 -16 -15
-16 -21 -2 -4 11 -2 14 7 9 9 -5 9 -4 1 5 -16 17 -46 21 -64 7 -13 -10 -13 -9
0 8 12 16 12 18 1 11 -10 -6 -12 -4 -6 5 6 9 4 11 -5 5 -9 -6 -11 -4 -5 4 6
10 3 11 -12 2 -11 -6 -24 -7 -28 -3 -5 4 -5 0 0 -8 5 -8 5 -12 0 -8 -4 4 -15
2 -23 -5 -13 -10 -14 -9 -7 3 17 27 14 39 -8 34 -11 -2 -27 2 -36 9 -12 10
-13 9 -7 -1 7 -12 4 -12 -14 -2 -18 10 -21 9 -15 -1 5 -8 4 -10 -4 -5 -6 4 -8
12 -5 18 5 7 2 8 -6 3 -8 -5 -11 -4 -6 3 4 7 -1 10 -13 7 -15 -3 -18 1 -14 13
3 10 1 13 -4 7 -13 -15 -36 -18 -27 -3 5 9 2 8 -10 -1 -10 -9 -20 -11 -24 -5
-4 5 -11 10 -17 11 -5 1 -17 3 -25 5 -10 2 -14 -4 -12 -17 2 -11 4 -25 4 -30
1 -6 11 -12 22 -12 19 -2 19 -1 4 8 -10 6 -18 14 -18 20 0 5 12 1 27 -8 18
-12 24 -13 19 -4 -6 9 -5 12 5 9 8 -3 14 -11 15 -19 2 -30 5 -31 24 -8 10 13
19 19 20 14 0 -6 -6 -17 -12 -25 -11 -12 -10 -12 5 -1 20 15 23 2 5 -18 -9 -9
-9 -12 -1 -7 6 3 13 3 16 -1 2 -5 2 -3 1 4 -5 21 13 24 19 4 5 -21 38 -23 45
-3 2 7 9 9 14 6 7 -4 8 -2 4 4 -7 12 6 17 17 6 9 -9 -4 -35 -14 -28 -5 3 -9 0
-9 -5 0 -13 10 -14 29 -2 16 10 53 -8 45 -21 -3 -4 0 -8 6 -8 7 0 10 6 7 14
-9 22 5 28 19 8 9 -13 9 -19 1 -25 -8 -6 -7 -7 3 -4 8 2 13 12 12 22 -3 16 -2
17 12 6 15 -12 15 -16 1 -31 -23 -25 -18 -33 6 -9 15 15 18 24 9 34 -7 8 -7
15 -1 19 5 4 12 -2 16 -13 3 -11 13 -25 22 -33 9 -7 14 -8 10 -2 -13 22 22 23
49 1 16 -12 24 -16 20 -8 -6 9 -5 12 3 10 7 -3 12 -8 11 -13 -2 -12 30 -30 37
-22 4 3 1 6 -5 6 -7 0 -12 5 -12 10 0 11 41 7 61 -6 8 -4 9 -3 5 4 -4 7 -2 12
3 12 6 0 11 -5 11 -11 0 -6 7 -8 16 -5 11 4 15 2 11 -8 -6 -14 8 -16 28 -5 6
4 20 5 32 4 17 -1 20 1 12 11 -8 10 -6 12 10 11 16 -1 19 -6 15 -20 -4 -13 -2
-17 5 -13 6 4 11 14 11 22 0 8 5 14 10 14 13 0 13 -6 -1 -33 -9 -20 -9 -20 4
-5 8 10 17 15 21 11 4 -4 4 1 0 12 -7 17 -6 18 8 7 11 -9 18 -10 23 -2 8 13
35 13 35 0 0 -5 -5 -9 -11 -7 -6 1 -13 -4 -15 -11 -1 -7 0 -8 3 -2 2 5 9 8 14
4 5 -3 12 2 15 10 9 25 21 10 19 -23 -1 -17 2 -28 7 -25 5 3 6 15 2 27 -6 19
-5 20 10 8 10 -9 16 -10 16 -2 0 6 6 11 14 11 8 0 16 7 20 15 3 8 11 15 17 15
8 0 8 -4 1 -13 -8 -9 -8 -17 0 -27 8 -12 9 -12 4 2 -3 10 -1 20 4 23 6 4 10 2
10 -4 0 -6 10 -16 23 -22 12 -6 19 -8 15 -4 -4 5 -3 14 3 22 9 10 8 13 -1 13
-8 0 -10 3 -6 7 4 5 13 8 19 8 5 0 12 5 14 12 4 12 -55 12 -76 -1 -6 -4 -19
-2 -28 6 -9 7 -14 8 -10 2 3 -6 0 -11 -8 -11 -17 0 -21 16 -5 18 6 1 15 3 20
4 6 1 15 3 21 4 5 0 8 5 4 10 -3 6 6 8 21 5 19 -3 24 -1 18 8 -4 7 2 5 13 -5
23 -20 34 -22 30 -5 -2 12 31 18 120 20 23 1 40 5 37 10 -3 4 0 8 6 8 7 0 9
-7 6 -16 -4 -10 -2 -13 7 -8 7 4 8 3 4 -2 -5 -5 -16 -9 -25 -9 -9 0 -17 -5
-17 -12 0 -6 -3 -15 -7 -19 -5 -4 -8 -2 -8 5 0 8 -7 11 -15 7 -8 -3 -14 -2
-14 2 5 28 -2 35 -17 16 -8 -10 -12 -13 -8 -5 5 9 3 12 -5 7 -6 -4 -9 -11 -6
-16 3 -5 -3 -7 -14 -5 -13 2 -18 -1 -15 -10 3 -7 1 -16 -5 -20 -7 -4 -9 1 -5
12 3 10 -4 1 -16 -20 -12 -22 -19 -41 -16 -45 3 -3 6 0 6 6 0 6 6 10 13 8 6
-1 9 -1 5 1 -5 3 -8 9 -8 14 0 14 40 4 51 -12 7 -11 9 -11 9 4 0 9 5 17 11 17
5 0 7 -5 3 -11 -9 -16 25 4 53 30 l22 21 7 -22 c6 -20 8 -20 19 -5 19 26 29
20 12 -6 -12 -19 -13 -24 -2 -24 8 0 12 4 10 8 -3 4 4 18 16 30 14 16 19 18
15 7 -2 -9 1 -19 8 -21 9 -4 12 2 9 17 -3 16 1 22 16 23 12 1 19 -2 16 -7 -4
-6 2 -7 11 -3 10 4 15 2 11 -4 -3 -5 0 -10 8 -10 22 0 18 13 -7 24 -13 6 -17
12 -11 16 6 4 22 -2 36 -13 18 -15 28 -17 33 -9 4 7 3 9 -4 5 -6 -3 -13 -2
-17 4 -3 5 0 10 8 10 10 0 14 10 13 30 0 17 -5 30 -9 30 -5 0 -6 -8 -3 -17 6
-17 5 -17 -8 0 -12 16 -14 16 -20 2 -3 -9 -2 -14 3 -11 5 3 15 -2 22 -11 10
-12 10 -14 2 -9 -8 4 -13 2 -13 -6 0 -7 -7 -2 -16 10 l-15 22 -32 -22 c-17
-12 -28 -17 -24 -12 8 14 -22 11 -53 -5 l-25 -12 25 20 c16 14 18 19 8 15 -11
-4 -18 -1 -18 6 0 6 5 8 10 5 6 -3 10 -2 10 4 0 5 8 8 18 6 9 -1 22 0 27 4 17
10 35 10 35 0 0 -6 5 -7 10 -4 6 4 8 10 5 14 -2 5 13 8 36 7 26 -1 38 2 35 9
-2 7 5 11 17 10 12 -1 28 5 36 13 13 12 16 12 26 -2 11 -14 14 -14 31 -1 16
13 16 14 2 9 -10 -3 -18 -1 -18 4 0 6 9 9 20 7 11 -2 20 0 20 6 0 5 3 8 8 7 4
-1 17 3 30 10 12 7 22 9 22 5 0 -4 5 -1 10 7 7 11 10 11 10 2 0 -7 5 -10 10
-7 6 4 8 10 5 15 -3 4 3 7 12 6 10 -2 21 2 25 8 5 7 8 4 8 -8 0 -12 -5 -16
-16 -12 -8 3 -13 2 -10 -3 3 -4 -1 -17 -9 -27 -10 -15 -16 -16 -26 -7 -6 6
-18 9 -25 6 -12 -4 -12 -8 -2 -21 11 -13 11 -14 -1 -7 -10 6 -12 4 -6 -5 5 -9
4 -11 -4 -6 -6 4 -8 13 -4 19 4 8 1 8 -9 -1 -9 -7 -20 -12 -24 -10 -5 1 -19
-3 -30 -10 -12 -6 -25 -8 -29 -4 -5 4 -5 2 -2 -4 4 -7 -2 -10 -18 -9 -18 2
-22 -1 -18 -13 4 -13 1 -12 -11 3 l-16 20 6 -20 c4 -15 3 -16 -4 -6 -7 9 -12
10 -16 2 -4 -6 -3 -11 3 -11 5 0 8 -15 6 -32 -3 -18 -1 -28 3 -22 9 13 43 28
57 25 6 -1 4 3 -2 10 -16 16 -17 39 -2 39 5 0 8 -4 5 -9 -3 -5 1 -14 9 -21 8
-7 12 -17 8 -23 -3 -6 -1 -7 6 -3 6 4 9 11 6 16 -6 10 14 18 44 15 22 -2 23
-1 6 12 -16 11 -17 13 -3 13 9 0 20 -5 23 -11 5 -7 12 -6 23 4 10 8 25 13 35
12 9 -2 15 0 12 5 -3 4 4 19 15 31 20 25 26 20 11 -10 -7 -13 -6 -18 4 -18 7
0 11 7 7 15 -3 10 -1 13 6 8 7 -4 10 -2 6 7 -3 9 2 13 18 13 13 -1 22 4 21 12
-3 14 13 16 22 3 3 -5 1 -12 -5 -16 -5 -3 -10 -11 -10 -18 0 -6 6 -2 14 9 8
10 11 23 6 29 -4 5 -6 18 -5 28 2 9 0 17 -3 18 -4 0 -15 2 -25 4 -9 2 -15 -1
-11 -6 3 -5 9 -7 14 -4 4 3 11 -2 14 -11 3 -8 2 -12 -4 -9 -5 3 -18 1 -28 -4
-16 -9 -19 -7 -18 11 1 14 15 29 44 44 23 12 42 20 42 17 0 -4 8 1 18 10 10
10 22 14 25 10 4 -3 7 0 7 8 0 12 2 12 10 -1 11 -17 -7 -43 -23 -33 -6 3 -7 1
-3 -5 4 -7 -1 -10 -14 -7 -13 3 -18 0 -14 -7 4 -7 3 -8 -4 -4 -7 4 -10 -1 -7
-14 2 -11 0 -18 -5 -15 -6 3 -7 -1 -4 -9 9 -24 44 -14 60 16 15 29 27 37 22
16 -2 -7 2 -13 7 -13 5 0 8 6 7 14 -2 8 1 10 10 5 7 -5 19 -9 26 -10 10 -2 11
1 1 12 -10 12 -9 18 5 32 17 16 18 16 11 -5 -4 -15 -2 -23 5 -23 6 0 9 4 6 9
-3 5 2 15 11 22 15 12 16 12 10 -3 -3 -10 -2 -20 3 -23 5 -3 7 9 5 26 -4 26
-2 29 10 19 8 -7 20 -10 27 -7 8 3 6 6 -5 6 -15 1 -16 4 -7 21 6 11 16 18 22
14 7 -4 6 -9 -3 -15 -8 -5 -9 -9 -3 -9 18 0 24 13 13 27 -15 18 -4 16 27 -3
22 -15 24 -15 18 0 -5 12 5 21 41 37 l47 21 -23 24 c-26 28 -15 33 14 6 11 -9
17 -11 13 -4 -4 7 -2 12 6 12 9 0 9 3 -2 10 -13 8 -12 10 4 10 12 0 16 5 12
16 -3 9 -6 18 -6 20 0 3 -5 2 -11 -2 -8 -4 -7 -9 2 -16 11 -7 10 -8 -4 -4 -12
4 -16 2 -11 -6 5 -7 3 -8 -6 -3 -9 5 -11 4 -6 -3 4 -8 2 -10 -7 -6 -8 3 -18 0
-22 -5 -3 -6 -11 -9 -16 -5 -5 3 -8 0 -7 -8 2 -7 -3 -12 -10 -10 -8 1 -11 -2
-6 -9 5 -8 3 -9 -6 -4 -8 5 -11 4 -6 -3 4 -7 -1 -10 -14 -7 -11 2 -18 0 -15
-6 4 -5 11 -7 16 -4 5 4 9 1 9 -5 0 -7 -7 -9 -16 -6 -10 4 -13 2 -8 -6 4 -7 3
-8 -4 -4 -7 4 -12 3 -12 -2 0 -5 -7 -9 -15 -10 -8 -1 -22 -3 -30 -4 -8 -1 -16
-7 -19 -15 -4 -10 -1 -11 14 -3 30 16 31 12 4 -15 -14 -14 -27 -25 -29 -25 -5
0 1 42 9 60 8 19 46 44 46 30 0 -5 -5 -10 -12 -10 -6 0 -9 -2 -6 -5 8 -9 38 6
33 16 -6 8 29 44 43 44 4 0 18 10 31 22 13 12 30 19 39 16 9 -4 13 -2 9 4 -4
6 0 16 8 23 8 7 15 9 15 4 0 -5 5 -1 11 9 6 9 14 15 18 13 4 -3 15 6 25 19 10
13 24 21 32 18 8 -3 22 -2 32 3 20 9 28 11 43 13 6 0 9 7 6 15 -3 8 -2 17 4
20 5 2 4 3 -3 2 -7 -2 -12 -9 -10 -15 1 -7 -2 -10 -7 -7 -5 4 -13 1 -17 -5 -4
-8 -9 -7 -16 2 -8 11 -9 11 -5 -2 3 -9 -1 -16 -9 -16 -17 0 -18 9 -3 24 6 6
18 9 26 6 8 -3 13 0 11 7 -2 7 5 14 15 15 22 4 36 15 19 15 -7 0 -5 8 5 20 19
22 39 28 26 8 -4 -7 -8 -16 -9 -20 -1 -5 -2 -9 -3 -10 -2 -2 -4 -16 -6 -33 -1
-16 -1 -24 2 -17 3 6 9 10 14 7 5 -4 6 2 2 12 -6 16 -5 16 10 4 15 -12 17 -12
11 4 -6 14 -4 16 7 10 11 -7 12 -6 2 7 -7 8 -10 18 -6 21 3 4 12 -1 20 -11 11
-15 12 -13 1 11 -9 23 -13 25 -20 12 -5 -8 -14 -15 -20 -15 -7 0 -6 5 2 15 6
8 9 18 7 22 -3 5 8 9 24 9 21 1 27 -2 20 -10 -6 -8 -6 -17 1 -26 8 -12 9 -12
4 2 -3 12 3 23 19 34 14 9 22 20 19 25 -3 6 5 8 18 5 18 -3 23 1 25 18 0 11 3
30 5 41 2 14 -2 19 -14 17 -10 -2 -18 2 -18 8 0 6 5 8 10 5 6 -3 10 0 10 7 0
7 9 19 20 26 12 7 18 17 15 22 -3 5 0 12 7 17 18 11 78 90 78 101 0 15 28 23
36 10 4 -6 3 -8 -4 -4 -18 11 -23 -11 -5 -25 14 -12 16 -12 8 0 -6 11 -4 13 8
8 16 -6 16 -4 1 24 -10 21 -11 29 -3 23 9 -5 11 -2 6 9 -3 10 -2 17 4 17 6 0
8 4 5 9 -3 5 5 19 18 32 13 13 22 29 19 36 -3 8 2 13 13 13 11 0 15 -4 9 -8
-5 -4 -11 -14 -13 -22 -2 -8 0 -12 4 -8 4 4 13 0 21 -10 13 -15 13 -15 4 5
-14 29 -14 36 2 27 6 -4 3 2 -7 14 -11 12 -14 22 -8 22 6 0 14 -4 17 -10 3 -5
11 -10 17 -10 5 0 0 9 -13 21 -17 14 -19 19 -7 15 10 -3 20 0 24 6 4 6 3 8 -4
4 -6 -3 -14 -1 -18 5 -5 8 1 10 19 7 20 -4 25 -1 22 14 -2 10 -6 22 -10 27 -3
5 1 15 8 23 8 7 12 19 9 26 -2 6 1 12 7 12 6 0 11 -4 11 -10 0 -5 5 -10 12
-10 6 0 4 8 -6 19 -17 19 -17 21 8 42 14 12 26 27 26 33 0 5 -7 1 -15 -10 -12
-14 -12 -10 2 16 9 19 16 38 15 43 -1 4 5 7 13 7 9 0 12 -6 9 -17 -5 -17 -5
-17 6 0 6 9 17 14 23 11 7 -4 8 -3 4 2 -5 5 -13 10 -18 10 -5 1 -13 2 -18 3
-15 2 8 73 28 85 6 4 8 13 4 22 -3 8 3 22 13 30 11 9 13 13 6 9 -6 -3 -12 -1
-12 4 0 6 5 11 11 11 6 0 9 6 6 13 -2 6 2 27 9 45 7 18 14 36 16 40 2 4 6 6 9
5 3 -1 6 4 6 12 0 8 -5 11 -10 8 -7 -4 -8 1 -3 13 5 10 9 28 11 39 1 11 3 20
5 20 3 0 22 117 23 143 0 7 7 11 16 7 14 -4 14 -4 0 8 -19 14 -7 63 12 51 8
-4 9 -3 5 5 -4 6 -12 9 -17 6 -5 -4 -9 1 -9 10 0 9 3 14 8 12 4 -3 7 38 7 91
-1 54 3 105 7 115 6 11 5 17 -3 17 -8 0 -9 4 0 13 8 10 7 17 -2 26 -9 9 -9 14
2 20 8 5 9 11 3 15 -5 3 -10 27 -11 53 -1 62 -10 143 -17 167 -5 14 -3 16 7
10 11 -6 12 -5 2 7 -7 8 -14 31 -17 50 -2 19 -14 75 -25 125 -112 498 -411
959 -821 1266 -240 180 -517 312 -800 380 -104 25 -114 27 -170 34 -25 3 -52
7 -60 9 -35 10 -364 26 -373 19z m-1908 -3126 c12 -32 2 -44 -16 -19 -8 12
-11 26 -8 31 9 15 15 12 24 -12z m3946 -108 c3 -5 1 -10 -4 -10 -6 0 -11 5
-11 10 0 6 2 10 4 10 3 0 8 -4 11 -10z m-3850 -69 c3 -5 1 -12 -4 -15 -5 -3
-11 1 -15 9 -6 16 9 21 19 6z m3563 -387 c-7 -16 -20 -29 -28 -29 -8 0 -14 -6
-12 -13 1 -8 -2 -11 -8 -7 -5 3 -10 0 -10 -7 0 -10 -2 -10 -9 1 -6 9 -11 10
-15 2 -4 -6 -12 -8 -18 -5 -5 4 4 21 23 40 29 30 59 38 43 12 -5 -7 -2 -8 5
-4 7 5 10 15 7 23 -4 11 -2 13 9 9 8 -3 15 0 15 6 0 6 2 9 5 6 3 -3 0 -18 -7
-34z m-3242 -101 c-6 -6 -46 34 -46 47 0 5 12 -2 26 -17 14 -14 23 -27 20 -30z
m3124 -27 c0 -2 -7 -7 -16 -10 -8 -3 -12 -2 -9 4 6 10 25 14 25 6z m-3044 -25
c-3 -4 6 -19 19 -31 14 -13 25 -27 25 -32 0 -5 -14 5 -30 22 -26 26 -32 50
-14 50 3 0 3 -4 0 -9z m209 -153 c-3 -9 0 -20 6 -24 7 -4 9 -3 5 4 -3 6 -1 14
5 18 8 5 9 3 4 -6 -6 -10 -4 -12 7 -7 20 7 61 -21 52 -35 -5 -7 -1 -9 9 -5 12
4 14 2 10 -11 -5 -14 -4 -15 8 -6 11 9 27 3 73 -27 33 -22 52 -39 43 -39 -10
0 -17 -4 -17 -8 0 -4 9 -8 20 -8 11 0 20 4 20 8 0 14 15 9 38 -12 12 -12 22
-18 22 -14 0 3 6 1 13 -5 8 -6 18 -7 22 -3 5 4 5 2 1 -5 -4 -7 0 -11 11 -10
10 0 31 -8 47 -18 16 -11 38 -21 50 -22 11 -2 23 -8 27 -14 3 -6 9 -10 13 -10
20 3 26 0 20 -11 -6 -9 -9 -9 -12 0 -3 10 -7 10 -17 2 -9 -8 -15 -8 -20 0 -9
14 -28 13 -22 -3 9 -25 -56 -13 -87 15 -15 15 -33 26 -39 25 -6 -1 -11 3 -12
8 -1 24 -17 36 -31 24 -8 -6 -15 -9 -15 -5 -1 3 -2 9 -3 14 -4 21 -20 32 -41
28 -14 -3 -28 0 -31 6 -4 6 -2 8 3 5 6 -4 13 0 16 8 4 9 1 12 -9 8 -7 -3 -14
0 -14 7 0 6 -4 9 -9 6 -5 -3 -14 1 -21 9 -7 8 -17 12 -24 8 -14 -9 -40 -14
-32 -6 9 9 -25 43 -36 37 -5 -4 -16 3 -24 15 -12 16 -21 20 -41 15 -18 -5 -24
-4 -19 5 4 6 13 8 19 5 7 -4 -1 7 -17 24 -24 26 -26 32 -12 32 10 0 14 5 11
11 -4 6 2 5 14 -3 13 -8 19 -19 16 -30z m-65 16 c0 -8 -19 -13 -24 -6 -3 5 1
9 9 9 8 0 15 -2 15 -3z m2625 -87 c-25 -11 -45 -24 -45 -29 0 -5 -4 -7 -9 -4
-5 4 7 24 26 46 34 38 37 39 55 23 18 -16 16 -17 -27 -36z m-174 -41 c-9 -10
-9 -16 -1 -21 8 -5 4 -15 -10 -30 -13 -14 -19 -29 -15 -36 6 -8 4 -10 -6 -3
-26 16 -40 13 -57 -14 -19 -30 -41 -40 -38 -17 2 17 26 44 26 30 0 -5 11 2 24
14 14 13 22 29 19 37 -3 8 1 14 11 14 9 0 15 5 14 12 -2 7 2 12 9 13 6 0 15 3
19 8 13 13 17 8 5 -7z m-184 -151 c0 -8 -6 -15 -14 -15 -17 0 -17 17 0 23 6 3
12 6 13 6 0 1 1 -6 1 -14z m-37 -6 c0 -5 -4 -8 -9 -4 -6 3 -20 -8 -32 -24 -12
-17 -26 -28 -31 -25 -5 3 -15 -2 -23 -12 -13 -18 -14 -18 -20 -2 -6 15 -11 16
-28 6 -12 -6 -28 -17 -35 -25 -8 -7 -18 -10 -24 -6 -15 9 38 50 62 48 11 -1
23 -4 26 -8 10 -10 35 13 28 25 -4 6 2 8 14 4 15 -5 25 -1 34 13 13 22 38 28
38 10z m-1635 -57 c-3 -3 -11 0 -18 7 -9 10 -8 11 6 5 10 -3 15 -9 12 -12z
m60 -4 c3 -3 -3 -11 -12 -19 -10 -7 -15 -9 -11 -5 4 5 3 15 -3 22 -7 9 -6 12
5 10 9 -1 18 -5 21 -8z m40 -18 c16 -17 16 -20 3 -15 -9 4 -19 13 -22 21 -7
19 -2 18 19 -6z m52 -30 c-8 -13 -37 -24 -37 -14 0 16 15 32 30 31 14 -1 15
-5 7 -17z m1245 -2 c-12 -12 -35 -1 -27 12 3 5 13 6 21 3 10 -4 12 -9 6 -15z
m-107 2 c4 -6 3 -9 -2 -8 -4 1 -19 -4 -33 -11 l-25 -12 25 20 c30 24 27 24 35
11z m-1019 -12 c4 -7 4 -10 -1 -6 -4 4 -14 3 -22 -4 -10 -8 -17 -8 -26 1 -9
10 -8 11 6 6 10 -4 17 -2 17 4 0 15 17 14 26 -1z m244 2 c0 10 3 11 8 4 8 -13
42 -14 42 -2 0 5 6 6 13 1 6 -4 19 -8 27 -10 8 -1 23 -12 32 -24 11 -13 18
-16 18 -8 0 11 3 11 11 -1 9 -13 10 -13 6 0 -2 8 -9 14 -15 13 -5 -1 -12 3
-15 10 -3 7 4 12 18 12 16 0 21 -4 17 -15 -5 -12 -3 -13 9 -3 12 10 18 10 29
0 10 -10 12 -9 7 6 -5 12 -3 16 4 11 19 -11 79 -12 79 0 0 7 3 7 8 1 9 -13 32
-18 32 -7 0 4 10 8 23 9 20 2 19 0 -6 -13 -32 -17 -31 -40 1 -38 28 2 28 -2
-3 -22 -21 -14 -28 -14 -41 -3 -9 7 -21 14 -28 15 -6 1 -20 6 -30 10 -13 5
-17 4 -12 -4 3 -6 2 -13 -3 -16 -5 -4 -12 -2 -15 3 -3 5 -22 8 -41 6 -20 -1
-38 2 -41 7 -6 10 -24 11 -23 1 3 -19 -2 -36 -8 -30 -3 4 -12 2 -18 -3 -9 -8
-14 -6 -19 5 -3 9 -10 13 -16 10 -6 -3 -13 1 -16 10 -4 10 -10 12 -18 7 -6 -5
-27 -8 -46 -7 -27 1 -35 6 -35 21 0 10 6 18 12 17 7 -2 18 6 25 17 9 14 14 16
20 7 6 -9 8 -8 8 3z m693 -25 c-10 -7 -21 -11 -26 -8 -4 2 -13 0 -20 -6 -9 -7
-16 -5 -25 10 -7 10 -8 19 -3 19 5 0 11 -6 13 -12 4 -10 11 -9 29 3 29 20 59
14 32 -6z m-135 3 c-2 -7 3 -13 10 -14 6 -1 15 -2 19 -3 4 0 1 -7 -5 -13 -7
-7 -30 -13 -51 -14 -35 0 -38 2 -28 17 6 10 14 16 18 13 4 -2 12 3 19 11 15
18 21 19 18 3z m-647 -31 c-10 -9 -11 -8 -5 6 3 10 9 15 12 12 3 -3 0 -11 -7
-18z m514 -3 c-12 -9 -13 -13 -3 -17 7 -2 10 -8 5 -12 -7 -9 -38 25 -32 35 2
3 13 6 25 6 19 0 19 -2 5 -12z"/>
<path d="M4134 1028 c-16 -18 -21 -26 -11 -19 9 7 17 10 17 5 0 -13 24 15 26
31 3 20 2 20 -32 -17z"/>
<path d="M1226 761 c-4 -5 -2 -12 3 -15 5 -4 12 -2 15 3 4 5 2 12 -3 15 -5 4
-12 2 -15 -3z"/>
<path d="M1290 722 c0 -8 -5 -10 -12 -6 -7 4 -5 -2 6 -14 10 -12 22 -20 26
-17 4 2 17 -7 30 -20 17 -18 27 -22 36 -15 8 8 17 6 28 -5 9 -9 16 -12 16 -7
0 16 -48 43 -55 31 -7 -11 -46 17 -42 30 1 3 -2 7 -7 8 -5 1 -13 7 -17 15 -7
10 -9 10 -9 0z m30 -18 c0 -8 -19 -13 -24 -6 -3 5 1 9 9 9 8 0 15 -2 15 -3z"/>
<path d="M1506 591 c-4 -5 -2 -12 4 -16 6 -4 7 -12 3 -18 -5 -8 -2 -8 9 0 12
11 18 10 32 -5 9 -10 13 -22 9 -27 -5 -4 -3 -5 4 -1 6 3 15 2 18 -4 5 -8 12
-7 23 2 13 11 15 11 10 -2 -3 -9 0 -24 8 -35 9 -11 14 -14 14 -6 0 10 3 11 13
2 11 -8 18 -6 33 11 10 12 14 18 7 15 -6 -4 -14 -3 -18 3 -4 6 -10 8 -15 5 -4
-3 -11 2 -14 11 -3 8 -10 12 -16 9 -5 -3 -10 -1 -10 5 0 6 -5 8 -11 5 -5 -4
-19 1 -30 11 -10 9 -19 13 -19 9 0 -5 -11 2 -24 14 -14 13 -26 18 -30 12z m79
-51 c10 -11 16 -20 13 -20 -3 0 -13 9 -23 20 -10 11 -16 20 -13 20 3 0 13 -9
23 -20z m75 -36 c20 -3 21 -4 15 -14 -4 -6 -12 -7 -18 -3 -7 4 -15 8 -19 8 -5
0 -8 3 -8 8 0 30 1 31 10 17 5 -8 14 -16 20 -16z"/>
<path d="M3807 700 c-9 -11 -12 -20 -7 -20 6 0 13 7 16 15 4 8 11 12 17 8 6
-3 7 -1 3 5 -9 15 -9 15 -29 -8z"/>
<path d="M3613 623 c4 -7 0 -16 -10 -22 -13 -8 -14 -10 -4 -11 11 0 10 -4 -5
-16 -19 -15 -18 -15 2 -5 37 18 47 37 27 52 -10 8 -14 9 -10 2z"/>
<path d="M2269 333 c-6 -7 -15 -11 -18 -8 -4 2 -8 -2 -8 -10 0 -12 4 -12 20 2
18 16 20 16 15 2 -5 -12 -1 -16 15 -15 20 1 23 8 19 34 -3 13 -31 10 -43 -5z
m31 -8 c7 -9 8 -15 2 -15 -5 0 -12 7 -16 15 -3 8 -4 15 -2 15 2 0 9 -7 16 -15z"/>
<path d="M2325 342 c-11 -11 17 -41 32 -35 10 4 14 2 9 -5 -3 -6 -1 -14 5 -18
7 -4 9 -3 5 4 -3 6 -2 13 4 17 5 3 10 1 10 -4 0 -6 5 -11 11 -11 5 0 8 4 4 9
-3 5 -1 12 5 16 6 4 8 11 4 16 -3 5 -10 7 -15 4 -5 -4 -9 -1 -9 6 0 7 -7 4
-15 -7 -12 -15 -14 -15 -9 -2 4 13 0 16 -16 15 -11 -1 -23 -3 -25 -5z m28 -19
c-3 -7 -6 -13 -8 -13 -2 0 -5 6 -8 13 -3 8 1 14 8 14 7 0 11 -6 8 -14z m52 -2
c-9 -8 -36 -10 -30 -2 2 4 11 8 20 8 8 0 13 -3 10 -6z"/>
<path d="M2471 322 c-8 -16 -7 -18 12 -17 12 1 29 -3 37 -9 8 -5 12 -6 8 -2
-4 5 -3 15 3 23 13 15 33 18 24 3 -5 -9 8 -14 19 -7 2 1 13 -6 24 -16 12 -11
22 -14 26 -8 4 5 1 13 -5 16 -5 4 -8 12 -6 19 5 13 -86 17 -99 4 -4 -4 -13 -3
-20 3 -9 7 -15 5 -23 -9z m139 -17 c14 -19 14 -19 -2 -6 -10 7 -18 18 -18 24
0 6 1 8 3 6 1 -2 9 -13 17 -24z"/>
<path d="M2835 320 c-3 -5 -1 -10 4 -10 6 0 11 5 11 10 0 6 -2 10 -4 10 -3 0
-8 -4 -11 -10z"/>
<path d="M335 2249 c-4 -6 -5 -12 -2 -15 2 -3 7 2 10 11 7 17 1 20 -8 4z"/>
<path d="M4713 2095 c0 -8 4 -12 9 -9 5 3 6 10 3 15 -9 13 -12 11 -12 -6z"/>
<path d="M4696 2067 c3 -10 9 -15 12 -12 3 3 0 11 -7 18 -10 9 -11 8 -5 -6z"/>
<path d="M364 2042 c4 -3 14 -7 22 -8 9 -1 13 0 10 4 -4 3 -14 7 -22 8 -9 1
-13 0 -10 -4z"/>
<path d="M375 2000 c3 -5 8 -10 11 -10 2 0 4 5 4 10 0 6 -5 10 -11 10 -5 0 -7
-4 -4 -10z"/>
<path d="M390 1965 c-11 -13 -10 -14 4 -9 9 3 16 10 16 15 0 13 -6 11 -20 -6z"/>
<path d="M4656 1922 c-3 -5 1 -9 9 -9 8 0 15 4 15 9 0 4 -4 8 -9 8 -6 0 -12
-4 -15 -8z"/>
<path d="M430 1860 c0 -5 5 -10 11 -10 5 0 7 5 4 10 -3 6 -8 10 -11 10 -2 0
-4 -4 -4 -10z"/>
<path d="M4650 1851 c0 -7 -5 -9 -12 -5 -7 5 -8 3 -3 -5 5 -9 10 -10 18 -2 6
6 8 14 4 18 -4 3 -7 1 -7 -6z"/>
<path d="M443 1797 c-8 -17 -8 -24 0 -24 7 0 13 11 13 24 2 29 0 29 -13 0z"/>
<path d="M4629 1797 c6 -8 7 -18 3 -22 -4 -5 -1 -5 6 -1 10 6 10 11 1 22 -6 8
-14 14 -16 14 -3 0 0 -6 6 -13z"/>
<path d="M4600 1755 c0 -8 2 -15 4 -15 2 0 6 7 10 15 3 8 1 15 -4 15 -6 0 -10
-7 -10 -15z"/>
<path d="M468 1743 c6 -2 9 -10 6 -15 -4 -7 -2 -8 4 -4 18 11 14 26 -5 25 -11
0 -13 -3 -5 -6z"/>
<path d="M455 1700 c3 -5 8 -10 11 -10 2 0 4 5 4 10 0 6 -5 10 -11 10 -5 0 -7
-4 -4 -10z"/>
<path d="M480 1696 c0 -2 7 -7 16 -10 8 -3 12 -2 9 4 -6 10 -25 14 -25 6z"/>
<path d="M4576 1677 c3 -10 9 -15 12 -12 3 3 0 11 -7 18 -10 9 -11 8 -5 -6z"/>
<path d="M496 1654 c-9 -24 -2 -26 12 -4 7 11 8 20 3 20 -5 0 -12 -7 -15 -16z"/>
<path d="M4575 1640 c-3 -5 -1 -10 4 -10 6 0 11 5 11 10 0 6 -2 10 -4 10 -3 0
-8 -4 -11 -10z"/>
<path d="M4536 1611 c-4 -5 3 -7 14 -4 23 6 26 13 6 13 -8 0 -17 -4 -20 -9z"/>
<path d="M510 1566 c0 -2 7 -7 16 -10 8 -3 12 -2 9 4 -6 10 -25 14 -25 6z"/>
<path d="M550 1550 c0 -6 4 -9 9 -6 5 4 12 1 14 -4 3 -6 4 -5 3 2 -3 15 -26
23 -26 8z"/>
<path d="M4510 1545 c0 -5 5 -17 10 -25 5 -8 10 -10 10 -5 0 6 -5 17 -10 25
-5 8 -10 11 -10 5z"/>
<path d="M550 1522 c0 -5 7 -13 16 -16 8 -3 12 -10 9 -16 -3 -6 1 -7 10 -4 9
4 15 3 13 -2 -2 -5 0 -10 5 -11 18 -7 6 14 -22 36 -17 13 -31 19 -31 13z"/>
<path d="M560 1460 c-12 -7 -10 -9 7 -7 12 0 19 5 17 9 -6 10 -6 10 -24 -2z"/>
<path d="M4495 1460 c-3 -6 1 -7 9 -4 18 7 21 14 7 14 -6 0 -13 -4 -16 -10z"/>
<path d="M590 1416 c0 -2 7 -9 15 -16 9 -7 15 -8 15 -2 0 5 -7 12 -15 16 -8 3
-15 4 -15 2z"/>
<path d="M4480 1400 c-9 -6 -10 -10 -3 -10 6 0 15 5 18 10 8 12 4 12 -15 0z"/>
<path d="M640 1389 c-11 -8 -12 -12 -2 -16 6 -2 9 -10 6 -15 -4 -6 -3 -8 3 -5
6 4 19 -1 29 -9 18 -15 18 -15 -2 -11 -12 2 -21 -1 -21 -8 0 -7 9 -11 21 -9
12 3 15 2 9 -2 -7 -3 -13 -11 -13 -17 0 -8 4 -7 12 1 24 24 31 11 7 -15 l-24
-28 28 25 c24 21 26 26 13 36 -9 6 -13 14 -10 17 3 3 -6 13 -20 22 -25 17 -38
44 -14 29 7 -4 8 -3 4 4 -9 14 -7 14 -26 1z"/>
<path d="M4400 1365 c-10 -12 -10 -15 0 -15 9 0 9 -4 -1 -17 -13 -15 -12 -15
8 -2 15 9 19 16 10 21 -6 4 -8 10 -5 14 4 4 20 -1 35 -10 l28 -17 -24 20 c-28
25 -35 26 -51 6z"/>
<path d="M4415 1319 c-4 -6 -4 -13 -1 -16 3 -4 6 -1 6 6 0 8 8 11 20 8 11 -3
18 -1 14 4 -7 12 -31 11 -39 -2z"/>
<path d="M4390 1305 c0 -5 5 -17 10 -25 5 -8 10 -10 10 -5 0 6 -5 17 -10 25
-5 8 -10 11 -10 5z"/>
<path d="M706 1271 c-12 -13 -14 -21 -6 -26 6 -4 14 -5 17 -1 3 3 12 -1 20 -9
8 -8 20 -15 26 -15 7 0 4 5 -7 11 -12 8 -15 14 -7 18 8 5 6 13 -7 24 -18 16
-20 16 -36 -2z m34 -9 c0 -4 -9 -8 -21 -9 -17 -2 -18 1 -9 12 12 14 30 12 30
-3z"/>
<path d="M4318 1243 c-9 -10 -18 -25 -20 -33 -2 -8 -14 -23 -28 -32 -14 -10
-21 -18 -16 -18 5 0 -1 -11 -13 -24 -23 -24 -17 -42 9 -26 9 5 19 5 27 -1 13
-11 12 3 -2 46 -7 20 -6 20 9 1 16 -20 51 -33 40 -15 -3 5 -9 7 -13 4 -5 -2
-8 6 -8 20 0 16 4 22 11 18 6 -4 5 1 -3 10 -18 22 -3 22 23 0 12 -10 16 -11 9
-4 -9 10 -9 20 -2 34 15 27 -3 42 -23 20z m16 -17 c-3 -9 -10 -13 -15 -10 -5
3 -3 11 4 19 15 16 19 13 11 -9z m-60 -93 c4 -10 4 -14 0 -11 -4 4 -16 2 -28
-4 -21 -11 -21 -11 -2 11 23 25 22 25 30 4z"/>
<path d="M4386 1238 c3 -4 9 -8 15 -8 5 0 9 4 9 8 0 5 -7 9 -15 9 -8 0 -12 -4
-9 -9z"/>
<path d="M696 1219 c3 -5 9 -7 14 -4 4 3 11 0 13 -5 3 -6 4 -5 3 1 -1 7 -10
13 -19 15 -9 1 -15 -2 -11 -7z"/>
<path d="M4355 1219 c-4 -6 -5 -12 -2 -15 2 -3 7 2 10 11 7 17 1 20 -8 4z"/>
<path d="M793 1165 c21 -57 31 -75 42 -75 7 0 18 -7 25 -15 10 -12 10 -18 -1
-32 -12 -14 -10 -14 14 2 l28 18 -22 23 c-12 13 -28 20 -36 17 -13 -5 -13 -2
-4 14 8 17 7 24 -6 34 -12 10 -15 10 -9 2 11 -20 -12 -15 -24 5 -6 9 -9 13 -7
7z m40 -40 c-3 -9 -8 -14 -10 -11 -3 3 -2 9 2 15 9 16 15 13 8 -4z m42 -45
c10 -11 16 -20 13 -20 -3 0 -13 9 -23 20 -10 11 -16 20 -13 20 3 0 13 -9 23
-20z"/>
<path d="M781 1124 c0 -11 3 -14 6 -6 3 7 2 16 -1 19 -3 4 -6 -2 -5 -13z"/>
<path d="M794 1080 c0 -13 4 -16 10 -10 7 7 7 13 0 20 -6 6 -10 3 -10 -10z"/>
<path d="M4250 1090 c-9 -6 -10 -10 -3 -10 6 0 15 5 18 10 8 12 4 12 -15 0z"/>
<path d="M4287 1079 c7 -7 15 -10 18 -7 3 3 -2 9 -12 12 -14 6 -15 5 -6 -5z"/>
<path d="M835 1060 c-3 -5 -1 -10 4 -10 6 0 11 5 11 10 0 6 -2 10 -4 10 -3 0
-8 -4 -11 -10z"/>
<path d="M882 1034 c-9 -7 -14 -16 -9 -20 4 -4 7 -2 7 4 0 7 5 12 11 12 5 0 7
-5 4 -11 -4 -6 2 -5 14 3 12 7 21 15 21 19 0 10 -30 6 -48 -7z"/>
<path d="M4173 975 c-3 -9 -3 -18 -1 -21 3 -3 8 4 11 16 6 23 -1 27 -10 5z"/>
<path d="M999 967 c6 -8 9 -16 6 -19 -3 -2 2 -5 10 -5 13 0 13 3 -2 19 -19 21
-31 25 -14 5z"/>
<path d="M4065 860 c-3 -6 1 -7 9 -4 18 7 21 14 7 14 -6 0 -13 -4 -16 -10z"/>
<path d="M4032 851 c-11 -7 -11 -9 0 -14 9 -3 15 1 15 9 0 8 -1 14 -1 14 -1 0
-7 -4 -14 -9z"/>
<path d="M3925 820 c-14 -21 -22 -25 -28 -17 -6 8 -7 7 -4 -3 2 -8 10 -14 17
-12 7 2 9 -5 5 -19 -5 -16 -3 -20 6 -17 8 3 13 13 11 23 -2 12 1 15 10 9 29
-19 40 -13 23 12 -21 33 -2 30 24 -3 l21 -28 -11 28 c-7 15 -16 27 -21 27 -5
0 -6 5 -2 12 5 7 3 8 -6 3 -7 -4 -15 -3 -19 3 -4 7 -14 -1 -26 -18z m20 1 c-3
-5 -1 -12 5 -16 5 -3 10 -12 10 -18 0 -7 -7 -3 -15 7 -10 13 -15 15 -15 6 0
-7 -3 -10 -6 -7 -4 4 -1 13 6 22 14 16 25 21 15 6z"/>
<path d="M3990 840 c0 -5 5 -10 10 -10 6 0 10 5 10 10 0 6 -4 10 -10 10 -5 0
-10 -4 -10 -10z"/>
<path d="M4014 819 c-3 -6 -2 -15 4 -21 6 -6 12 -6 17 3 6 8 4 10 -5 4 -10 -6
-12 -4 -7 8 7 19 2 23 -9 6z"/>
<path d="M1173 805 c0 -8 4 -12 9 -9 5 3 6 10 3 15 -9 13 -12 11 -12 -6z"/>
<path d="M3896 724 c-4 -9 -4 -19 -1 -22 3 -3 5 0 5 7 0 7 4 9 10 6 6 -3 7 1
4 9 -8 20 -10 20 -18 0z"/>
<path d="M1235 660 c3 -5 8 -10 11 -10 2 0 4 5 4 10 0 6 -5 10 -11 10 -5 0 -7
-4 -4 -10z"/>
<path d="M3810 625 c0 -7 30 -13 34 -7 3 4 -4 9 -15 9 -10 1 -19 0 -19 -2z"/>
<path d="M3745 599 c-3 -4 2 -6 10 -5 21 3 28 13 10 13 -9 0 -18 -4 -20 -8z"/>
<path d="M3527 571 c-10 -14 -10 -14 4 -4 9 7 18 10 21 7 3 -3 8 -1 12 4 9 16
-24 9 -37 -7z"/>
<path d="M3487 556 c-17 -13 -17 -14 0 -20 10 -4 14 -4 10 0 -4 4 -2 13 4 21
14 17 9 16 -14 -1z"/>
<path d="M1400 540 c-9 -6 -10 -10 -3 -10 6 0 15 5 18 10 8 12 4 12 -15 0z"/>
<path d="M3430 520 c0 -5 5 -10 11 -10 5 0 7 5 4 10 -3 6 -8 10 -11 10 -2 0
-4 -4 -4 -10z"/>
<path d="M1517 507 c-3 -8 1 -14 8 -14 7 0 11 6 8 14 -3 7 -6 13 -8 13 -2 0
-5 -6 -8 -13z"/>
<path d="M3556 493 c-6 -14 -5 -15 5 -6 7 7 10 15 7 18 -3 3 -9 -2 -12 -12z"/>
<path d="M3365 490 c-4 -6 -11 -7 -17 -4 -7 4 -8 2 -4 -4 10 -16 23 -15 30 3
6 17 0 20 -9 5z"/>
<path d="M3286 465 c-11 -8 -15 -15 -9 -15 6 0 16 7 23 15 16 19 11 19 -14 0z"/>
<path d="M3533 465 c0 -8 4 -12 9 -9 5 3 6 10 3 15 -9 13 -12 11 -12 -6z"/>
<path d="M1773 457 c-3 -7 -3 -9 2 -5 4 4 14 3 21 -3 8 -7 14 -7 19 1 3 5 5
10 3 11 -27 6 -39 5 -45 -4z"/>
<path d="M3190 435 c-11 -13 -10 -14 4 -9 9 3 16 10 16 15 0 13 -6 11 -20 -6z"/>
<path d="M1616 422 c-2 -4 9 -8 25 -8 33 -2 33 4 1 11 -12 2 -24 1 -26 -3z"/>
<path d="M1704 419 c-4 -7 -3 -9 4 -5 5 3 13 0 15 -6 4 -9 6 -10 6 -1 1 17
-16 25 -25 12z"/>
<path d="M1906 418 c3 -4 9 -8 15 -8 5 0 9 4 9 8 0 5 -7 9 -15 9 -8 0 -12 -4
-9 -9z"/>
<path d="M3436 418 c3 -4 11 -5 19 -1 21 7 19 12 -4 10 -11 0 -18 -5 -15 -9z"/>
<path d="M1946 409 c2 -4 13 -7 24 -6 23 2 17 10 -10 12 -10 1 -17 -2 -14 -6z"/>
<path d="M2003 396 c0 -7 6 -13 14 -13 7 0 13 4 13 8 0 4 -6 9 -13 12 -8 3
-14 0 -14 -7z"/>
<path d="M2075 380 c10 -11 20 -20 23 -20 3 0 -3 9 -13 20 -10 11 -20 20 -23
20 -3 0 3 -9 13 -20z"/>
<path d="M3015 389 c-4 -5 -11 -7 -16 -4 -5 4 -9 1 -9 -5 0 -6 11 -8 26 -6 33
6 39 12 20 19 -9 4 -18 2 -21 -4z"/>
<path d="M1790 381 c0 -6 4 -13 10 -16 6 -3 7 1 4 9 -7 18 -14 21 -14 7z"/>
<path d="M2115 370 c-5 -9 21 -23 45 -24 8 -1 20 -5 26 -9 7 -4 17 0 24 8 7 8
10 16 6 16 -14 3 -26 7 -28 9 -9 7 -69 7 -73 0z m75 -10 c3 -1 9 -2 13 -1 5 1
6 -3 2 -9 -4 -7 -11 -8 -18 -2 -7 5 -20 8 -29 7 -10 -2 -20 0 -23 4 -4 7 40 7
55 1z"/>
<path d="M2874 358 c-3 -4 2 -8 10 -8 8 0 17 4 20 8 3 5 -2 9 -10 9 -8 0 -17
-4 -20 -9z"/>
<path d="M3290 359 c0 -5 5 -7 10 -4 6 3 10 8 10 11 0 2 -4 4 -10 4 -5 0 -10
-5 -10 -11z"/>
<path d="M2773 343 c0 -6 5 -9 11 -5 6 4 14 7 18 7 3 0 10 3 14 8 4 4 -4 6
-18 5 -13 -1 -25 -8 -25 -15z"/>
<path d="M2684 333 c-10 -7 -13 -13 -7 -13 7 0 14 4 17 9 3 4 17 7 32 5 14 -1
23 0 20 4 -12 11 -43 9 -62 -5z"/>
<path d="M1910 318 c0 -4 4 -8 9 -8 6 0 12 4 15 8 3 5 -1 9 -9 9 -8 0 -15 -4
-15 -9z"/>
<path d="M1987 318 c4 -7 8 -19 9 -26 2 -8 5 -17 8 -20 4 -3 4 5 2 19 -2 13
-5 27 -5 32 -1 4 -6 7 -12 7 -6 0 -7 -5 -2 -12z"/>
<path d="M3036 302 c-3 -4 4 -9 15 -9 23 -2 25 3 4 10 -8 4 -16 3 -19 -1z"/>
<path d="M2172 286 c7 -8 15 -12 17 -11 5 6 -10 25 -20 25 -5 0 -4 -6 3 -14z"/>
<path d="M2895 289 c-11 -16 -1 -19 13 -3 7 8 8 14 3 14 -5 0 -13 -5 -16 -11z"/>
<path d="M2115 280 c3 -5 8 -10 11 -10 2 0 4 5 4 10 0 6 -5 10 -11 10 -5 0 -7
-4 -4 -10z"/>
<path d="M2200 260 c-9 -6 -10 -10 -3 -10 6 0 15 5 18 10 8 12 4 12 -15 0z"/>
<path d="M2280 266 c0 -2 7 -7 16 -10 8 -3 12 -2 9 4 -6 10 -25 14 -25 6z"/>
<path d="M2510 250 c-9 -6 -10 -10 -3 -10 6 0 15 5 18 10 8 12 4 12 -15 0z"/>
<path d="M2644 244 c-18 -14 -18 -15 4 -4 12 6 22 13 22 15 0 8 -5 6 -26 -11z"/>
<path d="M2856 247 c3 -10 9 -15 12 -12 3 3 0 11 -7 18 -10 9 -11 8 -5 -6z"/>
<path d="M2390 245 c0 -7 30 -13 34 -7 3 4 -4 9 -15 9 -10 1 -19 0 -19 -2z"/>
<path d="M2555 240 c-3 -6 1 -7 9 -4 18 7 21 14 7 14 -6 0 -13 -4 -16 -10z"/>
<path d="M2464 218 c-3 -4 5 -5 17 -3 30 6 36 14 9 12 -12 -1 -24 -5 -26 -9z"/>
<path d="M2650 226 c0 -2 7 -7 16 -10 8 -3 12 -2 9 4 -6 10 -25 14 -25 6z"/>
</g>
</svg>
